<svg viewBox="0 0 24 24" xmlns="http://www.w3.org/2000/svg" aria-hidden="true">
  <g id="cosmere-complication" transform="translate(-80.155746,-141.72556)">
    <path
      id="cosmere-complication-burst"
      d="m 88.628074,144.1341 0.323308,4.49317 1.722318,1.1006 0.789216,-1.97329 z m -5.160788,4.43149 3.13582,3.23415 2.026828,-0.26397 -0.663831,-2.01893 z m -1.10489,6.71201 4.481049,0.46183 1.382962,-1.50503 -1.80626,-1.11988 z m 3.468002,5.8519 3.72955,-2.52657 0.09199,-2.04188 -2.103518,0.30317 z m 6.418182,2.25364 1.232946,-4.33278 -1.242028,-1.62329 -1.416514,1.58435 z m 6.365223,-2.39914 -1.840572,-4.11163 -1.99488,-0.44515 -0.06671,2.1242 z m 3.333907,-5.92934 -4.052875,-1.9666 -1.814303,0.94128 1.314306,1.67011 z m -1.25739,-6.68513 -4.368786,1.09864 -0.7848,1.88726 2.080351,0.43457 z m -5.260338,-4.31287 -2.640492,3.6498 0.611918,1.95019 1.87298,-1.00432 z"
      fill="#51165a"
      stroke="#311236"
      stroke-width="0.122943"
      stroke-linecap="square"
      stroke-linejoin="miter"
      stroke-miterlimit="10" />
    <text
      id="cosmere-complication-value"
      x="89.869926"
      y="156.06065"
      font-size="7.97841"
      direction="ltr"
      fill="#f7e6c7"
      stroke="#f7e6c7"
      stroke-width="0.251289"
      stroke-linecap="square"
      stroke-linejoin="miter"
      stroke-miterlimit="10">4</text>
  </g>
</svg>
