<?xml version="1.0" encoding="UTF-8" standalone="no"?>
<!-- Created with Inkscape (http://www.inkscape.org/) -->

<svg
   width="1024"
   height="1024"
   viewBox="0 0 270.93334 270.93333"
   version="1.1"
   id="svg1"
   xml:space="preserve"
   sodipodi:docname="cadence logo transparent.svg"
   inkscape:version="1.4.3 (0d15f75, 2025-12-25)"
   xmlns:inkscape="http://www.inkscape.org/namespaces/inkscape"
   xmlns:sodipodi="http://sodipodi.sourceforge.net/DTD/sodipodi-0.dtd"
   xmlns="http://www.w3.org/2000/svg"
   xmlns:svg="http://www.w3.org/2000/svg"><sodipodi:namedview
     id="namedview1"
     pagecolor="#ffffff"
     bordercolor="#000000"
     borderopacity="0.25"
     inkscape:showpageshadow="2"
     inkscape:pageopacity="0.0"
     inkscape:pagecheckerboard="0"
     inkscape:deskcolor="#d1d1d1"
     inkscape:document-units="mm"
     inkscape:zoom="0.48693448"
     inkscape:cx="560.65038"
     inkscape:cy="600.69683"
     inkscape:window-width="1920"
     inkscape:window-height="1009"
     inkscape:window-x="-8"
     inkscape:window-y="828"
     inkscape:window-maximized="1"
     inkscape:current-layer="svg1" /><defs
     id="defs1" /><g
     inkscape:label="Calque 1"
     inkscape:groupmode="layer"
     id="layer1"
     transform="translate(-175.12134,25.929162)"><path
       style="fill:none;fill-opacity:1;stroke:#311236;stroke-width:1.9;stroke-dasharray:11.39999986,7.59999991;stroke-dashoffset:0;stroke-opacity:1;stroke-linecap:round"
       d="m 348.58992,207.55964 c 18.3004,-6.69609 43.6147,-26.15498 54.55591,-67.17835"
       id="path4"
       sodipodi:nodetypes="cc" /><path
       d="M 294.15872,142.10085 C 284.10346,135.67172 274.7836,129.75394 273.44789,128.9502 l -2.42857,-1.46131 V 102.95071 78.412535 l 6.16482,-4.052831 c 28.05839,-18.446033 35.08083,-22.942447 35.83133,-22.942447 0.47451,0 10.20006,6.136773 21.61236,13.637271 l 20.74955,13.637268 0.0404,23.982914 c 0.0369,21.94944 -0.0702,24.07709 -1.26725,25.09344 -2.15181,1.8274 -40.6435,26.02203 -41.39889,26.02203 -0.17076,0 -8.53775,-5.26021 -18.593,-11.68933 z m 27.08698,-4.75012 c 4.27878,-5.9593 9.05093,-12.60046 10.60478,-14.75814 l 2.82509,-3.92305 h -21.83141 c -21.54409,0 -21.81795,0.0192 -20.80625,1.46681 7.49448,10.72274 20.56534,28.32918 20.94087,28.20743 0.26805,-0.0869 3.98807,-5.03375 8.26692,-10.99305 z m -15.46409,7.01731 c -0.70259,-1.07232 -5.28992,-7.29724 -10.19404,-13.83316 l -8.91661,-11.88351 -5.62951,3.79876 -5.62949,3.79874 8.82559,5.61856 c 4.85405,3.0902 11.85194,7.60361 15.55079,10.02977 3.6989,2.42616 6.84798,4.41331 6.99802,4.41586 0.15003,0.002 -0.30214,-0.87271 -1.00475,-1.94502 z m 23.64869,-4.66433 c 5.06822,-3.22671 11.85421,-7.56543 15.07997,-9.64161 l 5.86503,-3.77486 -5.73897,-3.87263 c -3.15644,-2.12995 -5.831,-3.75987 -5.94343,-3.62203 -3.27614,4.01544 -19.29227,26.77788 -18.84147,26.77788 0.20025,0 4.51067,-2.64004 9.57887,-5.86675 z m -44.37508,-23.71196 c 0.25561,-0.13532 -10.19732,-27.358879 -10.6966,-27.858136 -0.19267,-0.192669 -0.35031,7.610563 -0.35031,17.340516 v 17.69081 l 5.41753,-3.53055 c 2.97969,-1.94178 5.5129,-3.58098 5.62938,-3.64264 z m 66.50377,-18.754014 -0.21046,-8.728599 -5.0104,12.651643 c -2.75574,6.95841 -5.10957,13.13053 -5.23075,13.71583 -0.12615,0.61017 2.01132,2.61765 5.01039,4.70535 l 5.23076,3.64114 0.21046,-8.62838 c 0.11594,-4.74561 0.11594,-12.55626 0,-17.356984 z m -21.33415,17.502154 5.77724,-0.18022 -4.19527,-7.47247 c -6.5015,-11.580125 -18.34153,-32.089296 -18.76545,-32.505275 -0.20958,-0.205497 -0.50464,-0.03737 -0.65607,0.373626 -0.15127,0.410985 -3.40067,6.127432 -7.22057,12.703209 -9.00297,15.49819 -15.464,26.91332 -15.46495,27.32291 -6.8e-4,0.30937 28.26212,0.14075 40.52507,-0.24179 z m -27.8211,-6.23185 c 0,-0.69623 1.51316,-2.88356 3.36259,-4.86076 3.7149,-3.971511 3.91161,-4.5148 2.16089,-5.967777 -1.01943,-0.846067 -1.35401,-0.789058 -2.20583,0.37585 -0.61898,0.846489 -1.48041,1.190417 -2.24594,0.896666 -1.11234,-0.42684 -1.12671,-0.650856 -0.13756,-2.148651 1.61381,-2.443721 6.0023,-2.690012 7.58814,-0.42586 1.78102,2.542763 1.47248,4.043212 -1.51043,7.344922 l -2.70232,2.99114 h 2.75712 c 2.22256,0 2.70883,0.25354 2.50799,1.30769 -0.36609,1.92178 -9.57467,2.38993 -9.57467,0.48678 z m 13.74912,0.62265 c -2.87722,-1.92117 -3.56272,-10.361781 -1.04593,-12.878575 2.131,-2.130997 5.6424,-1.954106 7.15908,0.360646 1.65728,2.52934 1.56465,9.799869 -0.14896,11.693429 -1.27217,1.40568 -4.43828,1.84338 -5.96418,0.8245 z m 4.55843,-4.65886 c 0.55384,-2.52159 -0.11595,-6.477696 -1.21105,-7.154602 -1.51733,-0.937734 -2.89882,1.387877 -2.89882,4.879812 0,3.85208 0.33941,4.51653 2.3069,4.51653 0.84865,0 1.48417,-0.79017 1.80297,-2.24174 z m -31.88036,5.57448 c 0.83013,-1.82198 8.405,-15.16515 16.42111,-28.925962 2.09487,-3.596126 3.52117,-6.538413 3.16954,-6.538413 -1.31371,0 -32.28681,6.591421 -32.64194,6.946568 -0.44771,0.447726 11.11982,30.391507 11.74603,30.405777 0.24232,0.006 0.82962,-0.84408 1.30526,-1.88797 z m 55.90772,-13.432983 c 5.84719,-14.694741 6.02836,-15.328241 4.4835,-15.677788 -0.88548,-0.200351 -7.83077,-1.56577 -15.43399,-3.034274 -7.60327,-1.468506 -14.64019,-2.867489 -15.63758,-3.108855 l -1.81354,-0.438846 1.52421,2.169117 c 1.66021,2.362698 14.18215,24.285269 17.79503,31.154229 1.23296,2.3442 2.40986,4.25942 2.61536,4.25605 0.20555,-0.003 3.11564,-6.89721 6.46701,-15.319633 z m 1.75268,-19.433753 c 0,-0.372751 -31.30597,-21.278831 -31.86415,-21.278831 -0.14704,0 -0.26745,3.202808 -0.26745,7.117348 0,8.53442 -1.78708,7.380095 17.73237,11.453771 7.71411,1.609918 14.10971,2.965808 14.21247,3.013092 0.10279,0.04727 0.18669,-0.09012 0.18669,-0.30538 z m -50.13608,-3.343005 c 7.97549,-1.635933 14.62933,-3.102912 14.78637,-3.259952 0.15705,-0.157041 0.1886,-3.509465 0.0707,-7.449838 l -0.21493,-7.164311 -7.84611,5.246772 c -4.31536,2.885725 -11.29278,7.447857 -15.50537,10.138074 -4.21263,2.690221 -7.6593,5.022943 -7.6593,5.183833 0,0.578639 2.08361,0.235656 16.36894,-2.694578 z"
       style="fill:#51165a;fill-opacity:1;stroke:none;stroke-width:1.12969;stroke-dasharray:none;stroke-opacity:1"
       id="path1-4"
       sodipodi:nodetypes="sscccssscssssssscscsssscccsssssscscssssscssscssscssscsssssssssssssscssscsssccssssssssscssssscssssssssssscsccssscc" /><path
       id="circle8"
       style="fill:none;stroke:#311236;stroke-width:2.25399;stroke-opacity:1"
       d="M 402.76144,33.341927 A 15.604551,15.604551 0 0 1 387.15689,48.946478 15.604551,15.604551 0 0 1 371.55234,33.341927 15.604551,15.604551 0 0 1 387.15689,17.737375 15.604551,15.604551 0 0 1 402.76144,33.341927 Z M 323.96249,0.58296144 A 15.604551,15.604551 0 0 1 308.35794,16.187513 15.604551,15.604551 0 0 1 292.75339,0.58296144 15.604551,15.604551 0 0 1 308.35794,-15.02159 15.604551,15.604551 0 0 1 323.96249,0.58296144 Z M 242.50885,50.164093 A 15.604551,15.604551 0 0 1 226.9043,65.768644 15.604551,15.604551 0 0 1 211.29975,50.164093 15.604551,15.604551 0 0 1 226.9043,34.559542 15.604551,15.604551 0 0 1 242.50885,50.164093 Z m -6.25304,99.441177 a 15.604551,15.604551 0 0 1 -15.60455,15.60455 15.604551,15.604551 0 0 1 -15.60455,-15.60455 15.604551,15.604551 0 0 1 15.60455,-15.60455 15.604551,15.604551 0 0 1 15.60455,15.60455 z" /><path
       id="path9"
       style="fill:#311236;fill-opacity:1;stroke:none;stroke-width:2.32915"
       d="m 379.65236,42.990243 c 0,-2.257335 0.25438,-8.827686 7.52918,-8.827688 7.27481,-2e-6 7.52922,6.570348 7.52922,8.827688 0,0 -4.99965,0.948084 -7.52918,0.948084 -2.52958,0 -7.52922,-0.948084 -7.52922,-0.948084 z M 391.7555,28.315889 a 4.6011755,4.6011755 0 0 1 -4.60119,4.601173 4.6011755,4.6011755 0 0 1 -4.60117,-4.601173 4.6011755,4.6011755 0 0 1 4.60117,-4.601172 4.6011755,4.6011755 0 0 1 4.60119,4.601172 z M 300.85324,10.231265 c 0,-2.2573363 0.25439,-8.8276912 7.52918,-8.8276928 7.27482,-1.7e-6 7.52922,6.5703515 7.52922,8.8276928 0,0 -4.99964,0.948085 -7.52918,0.948085 -2.52958,0 -7.52922,-0.948085 -7.52922,-0.948085 z m 12.10314,-14.6743616 a 4.6011755,4.6011755 0 0 1 -4.60117,4.6011758 4.6011755,4.6011755 0 0 1 -4.60119,-4.6011758 4.6011755,4.6011755 0 0 1 4.60119,-4.6011749 4.6011755,4.6011755 0 0 1 4.60117,4.6011749 z m -93.5584,64.2555256 c 0,-2.257337 0.25439,-8.827692 7.52918,-8.827693 7.27481,-2e-6 7.52921,6.570351 7.52921,8.827693 0,0 -4.99963,0.948085 -7.52918,0.948085 -2.52957,0 -7.52921,-0.948085 -7.52921,-0.948085 z m 12.10313,-14.674361 a 4.6011755,4.6011755 0 0 1 -4.60117,4.601175 4.6011755,4.6011755 0 0 1 -4.60117,-4.601175 4.6011755,4.6011755 0 0 1 4.60117,-4.601174 4.6011755,4.6011755 0 0 1 4.60117,4.601174 z M 213.14562,159.25359 c 0,-2.25733 0.25438,-8.82769 7.52918,-8.82769 7.27481,0 7.52921,6.57036 7.52921,8.82769 0,0 -4.99963,0.94809 -7.52918,0.94809 -2.52958,0 -7.52921,-0.94809 -7.52921,-0.94809 z m 12.10313,-14.67436 a 4.6011755,4.6011755 0 0 1 -4.60117,4.60118 4.6011755,4.6011755 0 0 1 -4.60118,-4.60118 4.6011755,4.6011755 0 0 1 4.60118,-4.60117 4.6011755,4.6011755 0 0 1 4.60117,4.60117 z m 122.40346,67.18618 c -0.7037,0 -3.18585,-0.57754 -5.61027,-0.7482 l -4.40807,-0.3103 2.67216,-1.38299 c 1.60637,-0.83137 3.59628,-2.37177 4.98902,-3.86198 1.27425,-1.36343 2.37099,-2.47897 2.43718,-2.47897 0.0662,0 0.12047,0.79684 0.12047,1.77076 0,1.45316 0.13837,1.77075 0.77209,1.77075 0.93928,0 1.27565,1.36776 0.49781,2.02418 -0.47986,0.40498 -0.46727,0.67837 0.0854,1.85945 0.35652,0.76157 0.6482,1.49415 0.6482,1.628 0,0.34035 -0.7038,-0.2707 -2.20404,-0.2707 z m -69.02895,-3.44673 c -14.12223,-5.45346 -27.02901,-14.80912 -38.13177,-27.64036 l -4.8121,-5.56127 -0.93646,1.39922 -0.93644,1.39921 -0.90138,-3.73507 c -0.49577,-2.05429 -1.2769,-4.69783 -1.73584,-5.87454 -0.45894,-1.17671 -0.83443,-2.32959 -0.83443,-2.56196 0,-0.23237 1.12706,0.42369 2.50458,1.45789 1.37753,1.03422 3.66782,2.51636 5.08952,3.29364 l 2.58496,1.41324 -1.52326,0.7031 -1.52324,0.70309 1.60816,2.10674 c 2.48459,3.25494 9.58135,10.87595 12.69854,13.63666 7.20619,6.38208 18.85106,13.55653 27.19085,16.75237 4.28662,1.64268 4.89926,2.06419 4.53291,3.11887 -0.32617,0.93898 -1.11825,0.8397 -4.8746,-0.61083 z m -64.61198,-79.376 c -1.01037,-1.42503 -2.51093,-15.10365 -2.51093,-22.88859 0,-6.416965 0.85218,-14.811255 2.15225,-21.200654 l 0.91479,-4.495857 h -1.53354 c -0.84342,0 -1.5335,-0.06396 -1.5335,-0.142152 0,-0.07819 0.80389,-1.068982 1.78645,-2.201778 0.98252,-1.132798 2.62129,-3.65856 3.64166,-5.612808 1.02037,-1.954249 1.88454,-3.553062 1.92036,-3.552922 0.0358,1.42e-4 0.065,3.087964 0.065,6.861829 0,3.773865 -0.0515,6.861505 -0.11428,6.86142 -0.0629,-8.1e-5 -0.54207,-0.309789 -1.06491,-0.688239 -0.52285,-0.378447 -1.04717,-0.515539 -1.16516,-0.304647 -0.37282,0.666419 -1.81033,9.028241 -2.22544,12.945335 -1.11149,10.487973 -0.91044,18.135553 0.76217,28.986053 0.53193,3.45087 0.62638,5.02284 0.3258,5.42294 -0.53344,0.71005 -0.92257,0.71281 -1.42083,0.01 z m 23.47442,-95.476865 -0.90013,-0.805185 4.58877,-5.194914 c 2.52381,-2.857203 5.94123,-6.40298 7.59425,-7.879503 6.62506,-5.91767 16.24449,-12.0881028 23.6433,-15.1661185 1.65302,-0.6876834 3.15609,-1.3906627 3.34015,-1.5621761 0.18406,-0.1715118 0.0355,-0.9508722 -0.33009,-1.7319109 -0.36561,-0.78103862 -0.59443,-1.49775628 -0.50848,-1.59270609 0.0858,-0.0949501 0.77548,0.0354038 1.53229,0.28965652 0.75683,0.25425927 3.61574,0.58011294 6.35319,0.7241196 l 4.97715,0.2618304 -3.10179,1.72409217 c -1.8194,1.0112866 -4.0345,2.7220505 -5.35773,4.1378874 -1.24074,1.3275864 -2.31007,2.4137931 -2.37626,2.4137931 -0.0662,0 -0.12047,-0.7968396 -0.12047,-1.7707562 0,-0.9739149 -0.17565,-1.7707549 -0.39029,-1.7707549 -0.77331,0 -6.64718,2.7559402 -10.99799,5.1601075 -8.73144,4.824828 -15.37426,10.25769 -22.55574,18.447306 -4.48891,5.119063 -4.49036,5.120205 -5.39025,4.315232 z M 368.19031,19.902624 c -1.52323,-0.587814 -3.91262,-1.198126 -5.30972,-1.356248 -1.3971,-0.158123 -2.54017,-0.442581 -2.54017,-0.632129 0,-0.189548 0.4959,-0.747536 1.10201,-1.239975 1.43238,-1.163754 1.20024,-1.414917 -4.50825,-4.87716 -7.49151,-4.5436722 -15.26879,-7.5839968 -24.09729,-9.4202055 -4.23389,-0.8805897 -4.55518,-1.0190633 -4.55518,-1.96327138 0,-0.55872162 0.17351,-1.13432191 0.38558,-1.27911187 0.63444,-0.43315925 10.05504,1.89094945 15.33089,3.78221165 4.90134,1.7570032 12.44933,5.5282838 17.1305,8.5590861 1.35329,0.876182 2.61723,1.593059 2.80873,1.593059 0.19151,0 0.56393,-0.722111 0.8276,-1.604691 l 0.4794,-1.6046904 1.26558,2.6166954 c 0.69609,1.439174 2.11729,3.839449 3.15827,5.333921 2.61457,3.753565 2.65997,3.689303 -1.47795,2.092509 z" /><circle
       style="fill:none;fill-opacity:1;stroke:#c75e19;stroke-width:2.25399;stroke-dasharray:none;stroke-dashoffset:0;stroke-opacity:1"
       id="circle9"
       cx="313.61465"
       cy="211.58173"
       r="15.604551" /><path
       id="path10"
       style="fill:#c85919;fill-opacity:1;stroke:none;stroke-width:2.56207"
       d="m 305.35795,222.14659 c 0,-2.48307 0.27981,-9.71052 8.2821,-9.71052 8.00229,0 8.28213,7.22745 8.28213,9.71052 0,0 -5.49959,1.04292 -8.2821,1.04292 -2.78252,0 -8.28213,-1.04292 -8.28213,-1.04292 z m 13.31344,-16.14189 a 5.0612931,5.0612931 0 0 1 -5.06129,5.06132 5.0612931,5.0612931 0 0 1 -5.0613,-5.06132 5.0612931,5.0612931 0 0 1 5.0613,-5.06131 5.0612931,5.0612931 0 0 1 5.06129,5.06131 z" /><circle
       style="fill:none;fill-opacity:1;stroke:#c75e19;stroke-width:3.00005;stroke-dasharray:none;stroke-dashoffset:0;stroke-opacity:1"
       id="circle10"
       cx="313.61465"
       cy="211.58173"
       r="20.769659" /></g></svg>
