<svg viewBox="0 0 270.93334 270.93333" xmlns="http://www.w3.org/2000/svg" role="img" aria-label="Cadence">
  <style>
    :root {
      --favicon-bg: #e9d8c9;
      --favicon-main: #51165a;
      --favicon-dark: #311236;
      --favicon-dot: #311235;
      --favicon-accent: #c85f19;
      --favicon-accent-stroke: #c75e19;
    }

    @media (prefers-color-scheme: dark) {
      :root {
        --favicon-bg: #211025;
        --favicon-main: #f0ddb6;
        --favicon-dark: #dddbd9;
        --favicon-dot: #dddbd9;
        --favicon-accent: #d2a456;
        --favicon-accent-stroke: #d2a456;
      }
    }
  </style>

  <rect id="favicon-background" width="270.93332" height="270.93332" x="0.2" y="0.2" fill="var(--favicon-bg)" />
  <path id="favicon-number" d="m 119.53471,137.68675 c 0,-1.1758 2.55543,-4.86981 5.6788,-8.20894 6.27378,-6.70715 6.60598,-7.62467 3.64933,-10.07848 -1.72161,-1.42885 -2.28667,-1.33257 -3.72523,0.63474 -1.04535,1.42958 -2.50015,2.0104 -3.79299,1.51431 -1.87854,-0.72085 -1.9028,-1.09918 -0.23231,-3.62869 2.72543,-4.12698 10.13678,-4.54293 12.815,-0.71919 3.0078,4.29426 2.48673,6.82825 -2.55086,12.40423 l -4.56371,5.05149 h 4.65625 c 3.75351,0 4.57473,0.42818 4.23554,2.20845 -0.61825,3.24554 -16.16987,4.03615 -16.16987,0.82208 z m 23.21973,1.05154 c -4.85909,-3.2445 -6.01677,-17.49915 -1.76636,-21.74956 3.59886,-3.59886 9.52898,-3.30012 12.09037,0.60907 2.79885,4.27159 2.64241,16.55019 -0.25156,19.74806 -2.14847,2.37395 -7.49546,3.11313 -10.07242,1.39243 z m 7.69837,-7.86796 c 0.93534,-4.25851 -0.19582,-10.93964 -2.04524,-12.08281 -2.56249,-1.58367 -4.89559,2.34387 -4.89559,8.2411 0,6.50548 0.57322,7.6276 3.89593,7.6276 1.43322,0 2.50651,-1.33445 3.0449,-3.78589 z" fill="var(--favicon-main)" />
  <g id="favicon-logo" transform="translate(-175.12134,25.929162)">
    <path id="favicon-arc" d="m 338.86131,210.59983 c 18.3004,-6.69609 56.99154,-34.5272 67.93275,-75.55057" fill="none" stroke="var(--favicon-dark)" stroke-width="5" stroke-linecap="round" stroke-dasharray="40 20" />
    <path id="favicon-symbol" d="m 285.77111,159.47959 c -14.47957,-9.25795 -27.90017,-17.77956 -29.82359,-18.93693 l -3.49715,-2.1043 V 103.10339 67.768414 l 8.87735,-5.836076 c 40.40409,-26.562287 50.51639,-33.037124 51.59711,-33.037124 0.6833,0 14.6881,8.836953 31.12181,19.63767 l 29.87935,19.637667 0.0582,34.535399 c 0.0532,31.60719 -0.10104,34.67101 -1.82484,36.13455 -3.09862,2.63146 -58.52664,37.47172 -59.6144,37.47172 -0.2459,0 -12.29436,-7.5747 -26.77392,-16.83263 z m 39.00526,-6.84018 c 6.16144,-8.58139 13.03334,-18.14466 15.27088,-21.25172 l 4.06812,-5.64919 h -31.43722 c -31.0235,0 -31.41785,0.0276 -29.961,2.11221 10.79205,15.44074 29.61409,40.79401 30.15486,40.61869 0.38599,-0.12513 5.74281,-7.2486 11.90436,-15.82999 z m -22.2683,10.10493 c -1.01173,-1.54414 -7.61748,-10.50802 -14.67942,-19.91975 l -12.83991,-17.11225 -8.10649,5.47021 -8.10647,5.47019 12.70885,8.09072 c 6.98983,4.44989 17.0668,10.9492 22.39314,14.44288 5.32642,3.49366 9.86108,6.35516 10.07714,6.35883 0.21605,0.002 -0.43508,-1.2567 -1.44684,-2.80083 z m 34.05412,-6.71663 c 7.29823,-4.64646 17.07006,-10.89423 21.71515,-13.88392 l 8.44565,-5.43581 -8.26411,-5.57658 c -4.54528,-3.06712 -8.39664,-5.41422 -8.55855,-5.21572 -4.71764,5.78223 -27.78086,38.56015 -27.13171,38.56015 0.28836,0 6.49536,-3.80166 13.79357,-8.44812 z m -63.90012,-34.14522 c 0.36809,-0.19487 -14.68414,-39.396792 -15.4031,-40.115722 -0.27744,-0.277444 -0.50445,10.959211 -0.50445,24.970342 v 25.47476 l 7.80125,-5.08399 c 4.29076,-2.79616 7.93858,-5.1566 8.1063,-5.24539 z m 95.76544,-27.005787 -0.30306,-12.569181 -7.21498,18.218358 c -3.96827,10.02011 -7.35779,18.90797 -7.53228,19.7508 -0.18166,0.87864 2.8963,3.76942 7.21495,6.77571 l 7.53231,5.24324 0.30306,-12.42487 c 0.16695,-6.83368 0.16695,-18.08101 0,-24.994057 z m -30.72118,25.203097 8.31923,-0.25951 -6.0412,-10.76035 C 330.6222,92.384552 313.57257,62.851346 312.96211,62.252336 c -0.30178,-0.295916 -0.72668,-0.05381 -0.94473,0.538021 -0.21784,0.591819 -4.89697,8.823503 -10.39763,18.292621 -12.96427,22.317402 -22.26816,38.755182 -22.26953,39.344992 -9.7e-4,0.44549 40.69746,0.20268 58.35611,-0.34818 z m -59.60723,-6.75875 c 1.19538,-2.62365 12.1032,-21.837816 23.6464,-41.653385 3.01661,-5.178421 5.07048,-9.415315 4.56414,-9.415315 -1.89175,0 -46.49302,9.491646 -47.0044,10.003058 -0.6447,0.644726 16.01254,43.763772 16.91428,43.784312 0.34895,0.008 1.19466,-1.21546 1.87958,-2.71867 z m 80.50711,-19.343495 c 8.41996,-21.160428 8.68084,-22.072668 6.45624,-22.576015 -1.27509,-0.288505 -11.2763,-2.254709 -22.22494,-4.369355 -10.94871,-2.114648 -21.08188,-4.129183 -22.51811,-4.476751 l -2.6115,-0.631938 2.19486,3.123529 c 2.3907,3.402285 20.42229,34.970795 25.62485,44.862095 1.77546,3.37564 3.47019,6.13356 3.76611,6.12871 0.29599,-0.005 4.48653,-9.93198 9.31249,-22.060275 z m 2.52387,-27.984604 c 0,-0.536762 -45.08061,-30.641517 -45.88438,-30.641517 -0.21174,0 -0.38513,4.612044 -0.38513,10.24898 0,12.289566 -2.5734,10.627338 25.53461,16.493432 11.10832,2.318281 20.31798,4.270763 20.46595,4.338852 0.14802,0.06806 0.26884,-0.129773 0.26884,-0.439747 z m -72.19596,-4.813928 c 11.48471,-2.355744 21.06624,-4.468193 21.29237,-4.69433 0.22615,-0.22614 0.27158,-5.05363 0.10176,-10.727767 l -0.3095,-10.316608 -11.29839,7.555351 c -6.21413,4.155444 -16.26161,10.724915 -22.32774,14.598827 -6.06618,3.873918 -11.02939,7.233038 -11.02939,7.46472 0,0.833239 3.00039,0.339345 23.57127,-3.880193 z" fill="var(--favicon-main)" />
    <path id="favicon-participant-dots" d="M 402.76144,33.341927 A 15.604551,15.604551 0 0 1 387.15689,48.946478 15.604551,15.604551 0 0 1 371.55234,33.341927 15.604551,15.604551 0 0 1 387.15689,17.737375 15.604551,15.604551 0 0 1 402.76144,33.341927 Z M 323.96249,0.58296144 A 15.604551,15.604551 0 0 1 308.35794,16.187513 15.604551,15.604551 0 0 1 292.75339,0.58296144 15.604551,15.604551 0 0 1 308.35794,-15.02159 15.604551,15.604551 0 0 1 323.96249,0.58296144 Z M 242.50885,50.164093 A 15.604551,15.604551 0 0 1 226.9043,65.768644 15.604551,15.604551 0 0 1 211.29975,50.164093 15.604551,15.604551 0 0 1 226.9043,34.559542 15.604551,15.604551 0 0 1 242.50885,50.164093 Z m -6.25304,99.441177 a 15.604551,15.604551 0 0 1 -15.60455,15.60455 15.604551,15.604551 0 0 1 -15.60455,-15.60455 15.604551,15.604551 0 0 1 15.60455,-15.60455 15.604551,15.604551 0 0 1 15.60455,15.60455 z" fill="var(--favicon-dot)" stroke="var(--favicon-dark)" stroke-width="2.25399" />
    <circle id="favicon-accent" cx="313.61465" cy="211.58173" r="20.769659" fill="var(--favicon-accent)" stroke="var(--favicon-accent-stroke)" stroke-width="3.00005" />
  </g>
</svg>
