<svg aria-hidden="true" viewBox="0 0 24 24" xmlns="http://www.w3.org/2000/svg">
  <g stroke-linecap="round" transform="matrix(1.21,0,0,1.21,-2.5199928,-2.5200231)">
    <g transform="matrix(.71844,0,0,.71844,3.3787,3.5688)" stroke="currentColor">
      <path d="m 22.693043,11.995 -2.8709,-10e-7 m -1.044,3e-6 h -0.78296 m -1.3049,0 -0.26099,-3e-6 m -8.7188441,2e-6 -0.26099,10e-7 m -1.3049,0 h -0.78296 m -1.044,-3e-6 -3.1319,2e-6 m 10.8131701,10.51855 -10e-7,-2.8709 m 3e-6,-1.0439 v -0.78296 m 0,-1.3049 -3e-6,-0.26099 m 3.32e-4,-8.7223446 2e-6,-0.26099 m 0,-1.3049 v -0.78296 m -2e-6,-1.044 10e-7,-3.1319" fill="none" stroke-width=".575167"/>
      <path d="M 10.786,12 12.0004,13.2144 13.2148,12 12.0004,10.7856 Z" fill="none" stroke-width=".34510033"/>
      <path d="M 15.239,12 12.0005,15.2385 8.762,12 12.0005,8.7615 Z" fill="none" stroke-width=".92026756"/>
      <path d="M 23.26,12 24.17083,12.91083 25.08166,12 24.17083,11.08917 Z" fill="none" stroke-width=".2"/>
      <path d="M -1.0817,12 -0.17087,12.91083 0.73996,12 -0.17087,11.08917 Z" fill="none" stroke-width=".2"/>
      <path d="m 11.089,23.987666 .91083,.91083 .91083,-.91083 -.91083,-.91083 z" fill="none" stroke-width=".2"/>
      <path d="m 11.089,-.4005751 .91083,.91083 .91083,-.91083 -.91083,-.91083 z" fill="none" stroke-width=".2"/>
      <path d="M 7.2643,7.6816845 7.9462245,6.99976 7.2643,6.3178355 6.5823755,6.99976 Z" stroke-width=".149737"/>
      <path d="M 16.736,17.152584 17.417924,16.47066 16.736,15.788736 16.054076,16.47066 Z" stroke-width=".149737"/>
      <path d="M 7.9462845,16.471 7.26436,15.789076 6.5824355,16.471 7.26436,17.152924 Z" stroke-width=".149737"/>
      <path d="M 17.417584,6.9997 16.73566,6.3177755 16.053736,6.9997 16.73566,7.6816245 Z" stroke-width=".149737"/>
      <path d="M 5.7489,5.9344276 6.1989776,5.48435 5.7489,5.0342724 5.2988223,5.48435 Z" stroke-width=".0988268"/>
      <path d="M 18.250997,18.436928 18.701075,17.98685 18.250997,17.536773 17.800933,17.98685 Z" stroke-width=".0988268"/>
      <path d="M 6.1989276,17.987003 5.74885,17.536925 5.2987723,17.987003 5.74885,18.437067 Z" stroke-width=".0988268"/>
      <path d="M 18.700928,5.4843018 18.25085,5.0342241 17.800773,5.4843018 18.25085,5.9343661 Z" stroke-width=".0988268"/>
      <path d="M 4.4987,4.5041566 4.7687466,4.23411 4.4987,3.9640634 4.2286534,4.23411 Z" stroke-width=".059296"/>
      <path d="M 19.501,19.507157 19.771047,19.23711 19.501,18.967063 19.230953,19.23711 Z" stroke-width=".059296"/>
      <path d="M 4.7687566,19.237 4.49871,18.966953 4.2286634,19.237 4.49871,19.507047 Z" stroke-width=".059296"/>
    </g>
    <path d="m 17.623085,7.9322088 v -3.1619 m -1.5809,1.5809 h 3.1619" stroke="currentColor" stroke-miterlimit="10" stroke-width=".413223" style="paint-order:stroke markers fill"/>
  </g>
</svg>
