<svg aria-hidden="true" viewBox="0 0 24 24" xmlns="http://www.w3.org/2000/svg">
<g stroke-linecap="round">
<g transform="matrix(.71844 0 0 .71844 3.3787 3.5688)" stroke="currentColor">
<path d="m22.233 11.995-2.8709-1e-6m-1.044 3e-6h-0.78296m-1.3049 0-0.26099-3e-6m-7.9133 2e-6 -0.26099 1e-6m-1.3049 0h-0.78296m-1.044-3e-6 -3.1319 2e-6m10.468 10.174-1e-6 -2.8709m3e-6 -1.0439v-0.78296m0-1.3049-3e-6 -0.26099m1e-6 -8.1482 2e-6 -0.26099m0-1.3049v-0.78296m-2e-6 -1.044 1e-6 -3.1319" fill="none" stroke-width=".4"/>
<path d="m10.786 12 1.2144 1.2144 1.2144-1.2144-1.2144-1.2144z" fill="none" stroke-width=".2"/>
<path d="m15.239 12-3.2385 3.2385-3.2385-3.2385 3.2385-3.2385z" fill="none" stroke-width=".6"/>
<path d="m23.26 12 0.91083 0.91083 0.91083-0.91083-0.91083-0.91083z" fill="none" stroke-width=".2"/>
<path d="m-1.0817 12 0.91083 0.91083 0.91083-0.91083-0.91083-0.91083z" fill="none" stroke-width=".2"/>
<path d="m11.089 23.642 0.91083 0.91083 0.91083-0.91083-0.91083-0.91083z" fill="none" stroke-width=".2"/>
<path d="m11.089-0.17084 0.91083 0.91083 0.91083-0.91083-0.91083-0.91083z" fill="none" stroke-width=".2"/>
<path d="m7.2643 7.5121 0.51234-0.51234-0.51234-0.51234-0.51234 0.51234z" stroke-width=".1125"/>
<path d="m16.736 16.983 0.51234-0.51234-0.51234-0.51234-0.51234 0.51234z" stroke-width=".1125"/>
<path d="m7.7767 16.471-0.51234-0.51234-0.51234 0.51234 0.51234 0.51234z" stroke-width=".1125"/>
<path d="m17.248 6.9997-0.51234-0.51234-0.51234 0.51234 0.51234 0.51234z" stroke-width=".1125"/>
<path d="m5.7489 5.8225 0.33815-0.33815-0.33815-0.33815-0.33815 0.33815z" stroke-width=".07425"/>
<path d="m18.251 18.325 0.33815-0.33815-0.33815-0.33815-0.33814 0.33815z" stroke-width=".07425"/>
<path d="m6.087 17.987-0.33815-0.33815-0.33815 0.33815 0.33815 0.33814z" stroke-width=".07425"/>
<path d="m18.589 5.4843-0.33815-0.33815-0.33815 0.33815 0.33815 0.33814z" stroke-width=".07425"/>
<path d="m4.4987 4.437 0.20289-0.20289-0.20289-0.20289-0.20289 0.20289z" stroke-width=".04455"/>
<path d="m19.501 19.44 0.20289-0.20289-0.20289-0.20289-0.20289 0.20289z" stroke-width=".04455"/>
<path d="m4.7016 19.237-0.20289-0.20289-0.20289 0.20289 0.20289 0.20289z" stroke-width=".04455"/>
<path d="m19.704 4.2341-0.20289-0.20289-0.20289 0.20289 0.20289 0.20289z" stroke-width=".04455"/>
</g>
<path d="m17.375 8.1798v-3.1619m-1.5809 1.5809h3.1619" stroke="currentColor" stroke-miterlimit="10" stroke-width=".2" style="paint-order:stroke markers fill"/>
</g>
</svg>
