<svg aria-hidden="true" viewBox="0 0 24 24" xmlns="http://www.w3.org/2000/svg">
<g transform="translate(-78.682 -102.78)">
<g transform="matrix(.66342 0 0 .66342 43.571 39.59)">
<path d="m72.371 115.94-1.3046 1.3046-1.3046-1.3046 1.3046-1.3046z" fill="none" stroke="currentColor" stroke-linecap="round" stroke-width=".375"/>
</g>
<g transform="matrix(-.66342 0 0 .66342 137.22 38.927)" fill="none" stroke="currentColor" stroke-linecap="round">
<path d="m66.622 116.94 3.479 3.479 3.479-3.479-3.479-3.479z" stroke-width=".90441"/>
<path d="m71.371 116.94-1.3046 1.3046-1.3046-1.3046 1.3046-1.3046z" stroke-width=".30147"/>
</g>
<path d="m92.384 110.06 1.9207 8.8481-2.6976 3.8414m-2.7041-12.689-1.9207 8.8481 2.6976 3.8414m5.0279-2.9011c1.4196 0.48892 2.3252 1.2311 2.3253 2.062 4e-6 1.4724-2.8434 2.6659-6.351 2.6659-3.5076 0-6.351-1.1936-6.351-2.6659 3e-6 -0.85634 0.96188-1.6184 2.4568-2.1061m6.696-12.053c1e-6 1.5338-1.2433 2.7771-2.7771 2.7771s-2.7771-1.2434-2.7771-2.7771 1.2434-2.7771 2.7771-2.7771 2.7771 1.2433 2.7771 2.7771zm0.31947 13.112c0.5608 0.20456 0.89781 0.46705 0.89782 0.75329 7e-6 0.65308-1.7543 1.1825-3.9183 1.1825-2.164 0-3.9183-0.52942-3.9183-1.1825 2e-6 -0.2618 0.28192-0.50373 0.75913-0.69965" fill="none" stroke="currentColor" stroke-linecap="round" stroke-linejoin="round" stroke-width=".3"/>
</g>
</svg>
