<svg aria-hidden="true" viewBox="0 0 24 24" xmlns="http://www.w3.org/2000/svg">
<g transform="translate(-78.682 -102.78)">
<g transform="matrix(.69672 0 0 .69672 41.125 35.324)">
<path d="m72.371 115.94-1.3046 1.3046-1.3046-1.3046 1.3046-1.3046z" fill="none" stroke="currentColor" stroke-linecap="round" stroke-width=".375"/>
</g>
<path d="m93.063 116.1-2.4239 2.4239-2.4239-2.4239 2.4239-2.4239z" fill="none" stroke="currentColor" stroke-linecap="round" stroke-width=".6"/>
<path d="m89.754 116.1 0.90896 0.90897 0.90896-0.90897-0.90896-0.90896z" fill="none" stroke="currentColor" stroke-linecap="round" stroke-width=".2"/>
<path d="m92.96 107.28c2e-6 1.2886-1.0446 2.3332-2.3332 2.3332s-2.3332-1.0446-2.3332-2.3332c1e-6 -0.39368 0.0975-0.76459 0.26968-1.0899 0.39138-0.73948 1.1686-1.2433 2.0635-1.2433 0.91874 0 1.7135 0.53102 2.094 1.3029 0.15318 0.31072 0.23924 0.66047 0.23924 1.0303z" fill="none" stroke="currentColor" stroke-linecap="round" stroke-linejoin="round" stroke-width=".33443"/>
<path d="m92.469 109.33 2.0171 9.2922-2.833 4.0342m-2.8399-13.326-2.0171 9.2922 2.7842 3.9647m5.3291-2.9772c1.4908 0.51347 2.442 1.2929 2.442 2.1655 7e-6 1.5463-2.9862 2.7998-6.6698 2.7998-3.6836 0-6.6698-1.2535-6.6698-2.7998 3e-6 -0.89933 1.0102-1.6996 2.5802-2.2119" fill="none" stroke="currentColor" stroke-dasharray="0.59999927,0.59999927" stroke-linecap="round" stroke-linejoin="round" stroke-width=".3"/>
<path d="m90.632 107.54c-0.78383-6e-3 -1.5886-0.22731-2.3206-0.38041-0.01157 1.3424 1.0285 2.455 2.3171 2.455 1.2886 0 2.3423-1.1171 2.3345-2.4234-0.69279 0.22998-1.5454 0.35433-2.331 0.34887zm-0.0035-2.5918c-0.89491 0-1.8988 1.22-2.2824 1.9709 0.60022-0.33663 1.4799-0.59441 2.2568-0.58327 0.80629 0.0116 1.733 0.28882 2.3238 0.67222-0.3808-0.79002-1.3795-2.0599-2.2982-2.0599z" stroke="currentColor" stroke-linecap="round" stroke-linejoin="round" stroke-width=".33443"/>
</g>
</svg>
