<svg aria-hidden="true" viewBox="0 0 24 24" xmlns="http://www.w3.org/2000/svg">
<path d="m22.499 22.199-3.6089-3.6089m-1.3123-1.3123-0.98425-0.98425m-1.6404-1.6404-0.32808-0.32809m-4.9212-4.9212-0.32808-0.32808m-1.6404-1.6404-0.98425-0.98425m-1.3123-1.3123-3.937-3.937m0 20.997 3.6089-3.6089m1.3123-1.3123 0.98425-0.98425m1.6404-1.6404 0.32808-0.32809m4.9212-4.9212 0.32808-0.32808m1.6404-1.6404 0.98425-0.98425m1.3123-1.3123 3.937-3.937" fill="none" stroke="currentColor" stroke-linecap="round"/>
<path d="m10.786 12 1.2144 1.2144 1.2144-1.2144-1.2144-1.2144z" fill="none" stroke="currentColor" stroke-linecap="round" stroke-width=".3"/>
<path d="m15.239 12-3.2385 3.2385-3.2385-3.2385 3.2385-3.2385z" fill="none" stroke="currentColor" stroke-linecap="round" stroke-width=".9"/>
</svg>
