<?xml version="1.0" encoding="UTF-8" standalone="no"?>
<!-- Created with Inkscape (http://www.inkscape.org/) -->

<svg
   width="24mm"
   height="24mm"
   viewBox="0 0 23.999999 24"
   version="1.1"
   id="svg1"
   xml:space="preserve"
   inkscape:version="1.4.3 (0d15f75, 2025-12-25)"
   sodipodi:docname="dos_cartes_multiple.svg"
   xmlns:inkscape="http://www.inkscape.org/namespaces/inkscape"
   xmlns:sodipodi="http://sodipodi.sourceforge.net/DTD/sodipodi-0.dtd"
   xmlns="http://www.w3.org/2000/svg"
   xmlns:svg="http://www.w3.org/2000/svg"><sodipodi:namedview
     id="namedview1"
     pagecolor="#ffffff"
     bordercolor="#000000"
     borderopacity="0.25"
     inkscape:showpageshadow="2"
     inkscape:pageopacity="0.0"
     inkscape:pagecheckerboard="0"
     inkscape:deskcolor="#d1d1d1"
     inkscape:document-units="mm"
     inkscape:zoom="8.0000002"
     inkscape:cx="50.624999"
     inkscape:cy="50.687499"
     inkscape:window-width="1920"
     inkscape:window-height="1009"
     inkscape:window-x="-8"
     inkscape:window-y="828"
     inkscape:window-maximized="1"
     inkscape:current-layer="layer1" /><defs
     id="defs1" /><g
     inkscape:label="Calque 1"
     inkscape:groupmode="layer"
     id="layer1"
     transform="translate(-82.482657,-115.51725)"><g
       id="g58"
       transform="matrix(0.5563209,0,0,0.5563209,39.392138,53.114268)"><g
         id="g21"><g
           id="g9"
           transform="translate(0.5,0.5)"><g
             id="g6"
             transform="translate(1.0000001,0.99999529)" /><g
             id="g8"
             transform="matrix(1,0,0,-1,1.0000001,266.11602)" /></g><path
           id="rect8"
           style="fill:none;stroke:#000000;stroke-width:0.5;stroke-linecap:round;stroke-linejoin:round;stroke-dasharray:none"
           d="m 105.65306,147.2484 v 1.55"
           sodipodi:nodetypes="cc" /><g
           id="g15"
           transform="rotate(90,94.493423,134.05801)"><g
             id="g12"
             transform="translate(1.0000001,0.99999529)" /><g
             id="g14"
             transform="matrix(1,0,0,-1,1.0000001,266.11602)" /></g><path
           d="m 106.17806,146.29294 v 3.03046 m 0,0 h -2.07456 m -9.629221,0 h -9.535217"
           style="fill:none;stroke:#000000;stroke-width:0.05;stroke-linecap:round;stroke-linejoin:round;stroke-dasharray:none"
           id="path16"
           sodipodi:nodetypes="cccccc" /><path
           d="m 106.47806,145.89538 v 3.72802 m 0,0 h -2.49149 m -8.869174,0 h -9.878334"
           style="fill:none;stroke:#000000;stroke-width:0.05;stroke-linecap:round;stroke-linejoin:round;stroke-dasharray:none"
           id="path18"
           sodipodi:nodetypes="cccccc" /><path
           d="m 106.77806,145.49197 v 4.43143 m 0,0 h -3.03705"
           style="fill:none;stroke:#000000;stroke-width:0.05;stroke-linecap:round;stroke-linejoin:round;stroke-dasharray:none"
           id="path20"
           sodipodi:nodetypes="cccc" /></g><g
         id="g46"><g
           id="g45"
           transform="rotate(20,94.233705,140.68893)"><g
             id="g39"
             transform="translate(0.5,0.5)"><g
               id="g36"
               transform="translate(1.0000001,0.99999529)"><path
                 id="path36"
                 style="fill:#000000;fill-opacity:1;stroke:#000000;stroke-width:0.1;stroke-linecap:round;stroke-dasharray:none"
                 d="m 93.140478,145.2577 0.394651,0.39465 0.394652,-0.39465 -0.394652,-0.39465 z"
                 sodipodi:nodetypes="ccccc" /></g><g
               id="g38"
               transform="matrix(1,0,0,-1,1.0000001,266.11602)" /></g><path
             id="path39"
             style="fill:none;stroke:#000000;stroke-width:0.5;stroke-linecap:round;stroke-linejoin:round;stroke-dasharray:none"
             d="m 105.65306,148.36367 v 0.43473"
             sodipodi:nodetypes="cc" /><g
             id="g42"
             transform="rotate(90,94.493423,134.05801)"><g
               id="g40"
               transform="translate(1.0000001,0.99999529)"><path
                 id="path40"
                 style="fill:#000000;fill-opacity:1;stroke:#000000;stroke-width:0.2;stroke-linecap:round;stroke-dasharray:none"
                 d="m 93.257051,139.98395 -0.511224,0.51122 0.789302,0.7893 0.789303,-0.7893 -0.345527,-0.34553 z"
                 sodipodi:nodetypes="cccccc" /></g><g
               id="g41"
               transform="matrix(1,0,0,-1,1.0000001,266.11602)" /></g></g></g><g
         id="g57"
         transform="rotate(15,102.92483,152.18533)"><g
           id="g56"
           transform="rotate(20,94.233705,140.68893)"><g
             id="g52"
             transform="translate(0.5,0.5)"><g
               id="g49"
               transform="translate(1.0000001,0.99999529)"><path
                 id="path46"
                 style="fill:none;fill-opacity:1;stroke:#000000;stroke-width:1.07851422;stroke-linecap:round;stroke-dasharray:none"
                 d="m 97.703034,132.55762 -4.20961,4.20962 -4.209612,-4.20962 4.209612,-4.20961 z"
                 sodipodi:nodetypes="ccccc" /><path
                 id="path47"
                 style="fill:none;stroke:#000000;stroke-width:0.35950474;stroke-linecap:round;stroke-dasharray:none"
                 d="m 91.956525,132.55762 1.578604,1.5786 1.578605,-1.5786 -1.578605,-1.5786 z"
                 sodipodi:nodetypes="ccccc" /><path
                 id="path48"
                 style="fill:#000000;fill-opacity:1;stroke:#000000;stroke-width:0.2;stroke-linecap:round;stroke-dasharray:none"
                 d="m 92.745827,140.49517 0.789302,0.7893 0.789303,-0.7893 -0.789303,-0.7893 z"
                 sodipodi:nodetypes="ccccc" /><path
                 id="path49"
                 style="fill:#000000;fill-opacity:1;stroke:#000000;stroke-width:0.1;stroke-linecap:round;stroke-dasharray:none"
                 d="m 93.140478,145.2577 0.394651,0.39465 0.394652,-0.39465 -0.394652,-0.39465 z"
                 sodipodi:nodetypes="ccccc" /></g><g
               id="g51"
               transform="matrix(1,0,0,-1,1.0000001,266.11602)"><path
                 id="path50"
                 style="fill:#000000;fill-opacity:1;stroke:#000000;stroke-width:0.2;stroke-linecap:round;stroke-dasharray:none"
                 d="m 92.745827,140.49517 0.789302,0.7893 0.789303,-0.7893 -0.789303,-0.7893 z"
                 sodipodi:nodetypes="ccccc" /><path
                 id="path51"
                 style="fill:#000000;fill-opacity:1;stroke:#000000;stroke-width:0.1;stroke-linecap:round;stroke-dasharray:none"
                 d="m 93.140478,145.2577 0.394651,0.39465 0.394652,-0.39465 -0.394652,-0.39465 z"
                 sodipodi:nodetypes="ccccc" /></g></g><g
             id="g55"
             transform="rotate(90,94.493423,134.05801)"><g
               id="g53"
               transform="translate(1.0000001,0.99999529)"><path
                 id="path53"
                 style="fill:#000000;fill-opacity:1;stroke:#000000;stroke-width:0.2;stroke-linecap:round;stroke-dasharray:none"
                 d="m 92.745827,140.49517 0.789302,0.7893 0.789303,-0.7893 -0.789303,-0.7893 z"
                 sodipodi:nodetypes="ccccc" /></g><g
               id="g54"
               transform="matrix(1,0,0,-1,1.0000001,266.11602)"><path
                 id="path54"
                 style="fill:#000000;fill-opacity:1;stroke:#000000;stroke-width:0.2;stroke-linecap:round;stroke-dasharray:none"
                 d="m 92.745827,140.49517 0.789302,0.7893 0.789303,-0.7893 -0.789303,-0.7893 z"
                 sodipodi:nodetypes="ccccc" /></g></g><path
             id="path55"
             style="fill:none;stroke:#000000;stroke-width:0.5;stroke-linecap:round;stroke-linejoin:round;stroke-dasharray:none"
             d="M 105.65306,118.7984 H 84.414062 v 30 m 21.238998,0 H 84.414062"
             sodipodi:nodetypes="ccccc" /><path
             id="path56"
             style="fill:none;stroke:#000000;stroke-width:0.53925711;stroke-linecap:round;stroke-linejoin:round;stroke-dasharray:none"
             d="M 105.65306,118.7984 H 84.414062 v 30 m 21.238998,0 H 84.414062 m 21.238998,-30 v 30 m -21.255516,-25.17094 -6.929002,1.85662 7.764571,28.97777 m 20.515297,-5.49705 -6.390456,1.71231 -14.124841,3.78474 m 23.679517,-9.86927 -3.24675,-4.63685 m -21.261683,-16.83968 -1.162212,0.81379 m -5.227666,3.66045 -5.994717,4.19755 11.494603,16.416 m 3.930215,5.61292 1.782475,2.54564 2.287759,0.41237 9.078566,-6.35688 m 5.07655,-3.55463 3.24286,-2.27068 -2.28777,-0.41237 -0.86325,0.60446 m -9.869511,6.91071 -6.665204,4.66702" /></g></g></g></g></svg>
