<?xml version="1.0" encoding="UTF-8" standalone="no"?>
<!-- Created with Inkscape (http://www.inkscape.org/) -->

<svg
   width="24mm"
   height="24mm"
   viewBox="0 0 24 23.999999"
   version="1.1"
   id="svg1"
   xml:space="preserve"
   inkscape:version="1.4.3 (0d15f75, 2025-12-25)"
   sodipodi:docname="edit.svg"
   xmlns:inkscape="http://www.inkscape.org/namespaces/inkscape"
   xmlns:sodipodi="http://sodipodi.sourceforge.net/DTD/sodipodi-0.dtd"
   xmlns="http://www.w3.org/2000/svg"
   xmlns:svg="http://www.w3.org/2000/svg"><sodipodi:namedview
     id="namedview1"
     pagecolor="#ffffff"
     bordercolor="#000000"
     borderopacity="0.25"
     inkscape:showpageshadow="2"
     inkscape:pageopacity="0.0"
     inkscape:pagecheckerboard="0"
     inkscape:deskcolor="#d1d1d1"
     inkscape:document-units="mm"
     inkscape:zoom="2.8284271"
     inkscape:cx="34.648232"
     inkscape:cy="-4.7729708"
     inkscape:window-width="1920"
     inkscape:window-height="1009"
     inkscape:window-x="-8"
     inkscape:window-y="828"
     inkscape:window-maximized="1"
     inkscape:current-layer="layer1" /><defs
     id="defs1" /><g
     inkscape:label="Calque 1"
     inkscape:groupmode="layer"
     id="layer1"
     transform="translate(-16.349142,-124.15596)"><g
       id="g7"
       transform="translate(-66.245353,47.475836)"
       style="stroke-width:0.4;stroke-dasharray:none"><g
         id="g6"
         style="stroke-width:0.4;stroke-dasharray:none"><g
           id="g5"
           style="stroke-width:0.4;stroke-dasharray:none" /></g></g><g
       id="layer1-2"
       transform="rotate(-50,162.62934,43.221988)" /><g
       id="g13"
       transform="matrix(0.22115072,0.03899484,-0.03899484,0.22115072,23.543909,95.824702)"><g
         id="g8"
         transform="rotate(25,43.517219,178.9626)"
         style="stroke-width:1.4;stroke-dasharray:none"><path
           id="rect7"
           style="fill:none;stroke:#000000;stroke-width:0.890621;stroke-linecap:round;stroke-linejoin:round;stroke-dasharray:none"
           d="m 44.039014,197.82513 -0.40521,-71.13394 m 8.506616,0.47409 0.406456,70.73408 m -3.871235,15.26418 c 0.262771,0.37529 0.1835,0.88417 -0.177064,1.13662 -0.36052,0.25253 -0.86585,0.15295 -1.128617,-0.22235 -0.262771,-0.37529 -0.1835,-0.88416 0.177052,-1.13662 0.360524,-0.25253 0.86586,-0.15294 1.128629,0.22235 z m -0.8057,16.62335 0.136441,-15.34466 m -0.152422,15.43526 -9.148301,-16.46795 5.295707,-15.46263 8.629034,0.0734 4.868325,15.57315 z m 0.457144,-31.89884 c 0.19963,-0.75758 -0.214425,-67.04536 -0.214425,-67.04536 m 9.303235,82.6207 c -1.399713,-0.95785 -5.937897,-4.16591 -6.015157,-4.49536 -0.08,-0.3411 -1.787036,-11.05919 -1.787036,-11.05919 m -10.893344,15.41354 c 1.107568,-0.7626 6.18654,-4.26362 6.343227,-4.44401 0.175843,-0.20257 2.114428,-10.93182 2.114428,-10.93182"
           sodipodi:nodetypes="ccccssssscccccccccccscccc" /><g
           id="layer1-8"
           transform="matrix(2.7610713,0,0,2.7610713,-148.08675,-198.7211)"
           style="stroke-width:0.50705;stroke-dasharray:none" /></g><g
         id="g10"
         transform="rotate(25,43.517219,178.9626)"
         style="stroke:#000000;stroke-width:0.7;stroke-dasharray:none;stroke-opacity:1"><g
           id="g9"
           transform="matrix(2.7610713,0,0,2.7610713,-148.08675,-198.7211)"
           style="stroke:#000000;stroke-width:0.253525;stroke-dasharray:none;stroke-opacity:1" /><path
           id="path10"
           style="fill:none;stroke:#000000;stroke-width:1.33593;stroke-linecap:round;stroke-linejoin:round;stroke-dasharray:none;stroke-opacity:1"
           d="m 57.738311,121.40001 -9.605795,9.60583 -9.605822,-9.60583 9.605822,-9.60582 z"
           sodipodi:nodetypes="ccccc" /></g><g
         id="g12"
         transform="rotate(25,43.517219,178.9626)"
         style="stroke:#000000;stroke-width:0.7;stroke-dasharray:none;stroke-opacity:1"><g
           id="g11"
           transform="matrix(2.7610713,0,0,2.7610713,-148.08675,-198.7211)"
           style="stroke:#000000;stroke-width:0.253525;stroke-dasharray:none;stroke-opacity:1"><path
             id="path11"
             style="fill:none;stroke:#000000;stroke-width:0.161282;stroke-linecap:round;stroke-dasharray:none;stroke-opacity:1"
             d="m 72.370979,115.94092 -1.304631,1.30463 -1.304632,-1.30463 1.304632,-1.30463 z"
             sodipodi:nodetypes="ccccc" /></g></g></g><path
       style="fill:#000000;fill-opacity:1;stroke:#000000;stroke-width:0.157194;stroke-linecap:butt;stroke-linejoin:round;stroke-dasharray:none;stroke-opacity:1"
       d="m 20.812606,143.51319 0.393872,2.37899 2.498095,-0.38272 -3.133996,1.36936 z"
       id="path14"
       sodipodi:nodetypes="ccccc" /></g></svg>
