<svg aria-hidden="true" viewBox="0 0 24 24" xmlns="http://www.w3.org/2000/svg">
  <g transform="matrix(0 -.92854 .92854 0 .959387 24.1163)" fill="none" stroke="currentColor" stroke-linecap="round">
    <path d="m2.37917 11.8912 5.99728 4.08e-4m0.930072-0.0013 2.54963 0.0011m0.898012-7.67e-4 1.55544 2.18e-4" stroke-width=".107696"/>
    <path d="m2.95833 11.5622 5.99728 4.08e-4m0.930072-0.0013 2.54963 0.0011m0.898012-7.67e-4 1.55544 2.18e-4" stroke-width=".107696"/>
    <path d="m2.95833 12.2202 5.99728 4.08e-4m0.930072-0.0013 2.54963 0.0011m0.898012-7.67e-4 1.55544 2.18e-4" stroke-width=".107696"/>
    <path d="m21.6039 11.8888-3.13981 3.13982-3.13981-3.13982 3.13981-3.13982z" stroke-width=".323088"/>
    <path d="m17.0705 11.8888 1.42469 1.42469 1.42469-1.42469-1.42469-1.42469z" stroke-width=".107696"/>
    <path d="m13.1788 5.10448 0.485167 0.323134m0.970333 0.646268 0.485168 0.323134 0.970334 0.646268m0.970335 0.646268 2.42584 1.61567 0.485167 0.323134 0.970334 0.646267 0.485166 0.323134 1.94067 1.29254-0.485167 0.323134-1.94067 1.29254-0.485168 0.323134-1.4555 0.9694-0.970334 0.646268-0.970334 0.646268m-0.970335 0.646267-0.485167 0.323134-0.970335 0.646268m-0.970333 0.646266-0.485167 0.323135" stroke-width=".323088"/>
  </g>
</svg>
