<svg aria-hidden="true" viewBox="0 0 24 24" xmlns="http://www.w3.org/2000/svg"><g transform="translate(-35.5273 -178.98)" stroke="currentColor" stroke-linecap="round"><path d="m46.1156 189.876-2.61347 2.61348-2.61347-2.61348 2.61347-2.61346z" fill="none" stroke-width=".6"/><path d="m47.6407 196.494s1.22605-1.2527 2.01637-1.24737c0.653472 4e-3 2.01637 0 2.01637 0h4.03273v-11.0635h-4.03273s-1.39451 8e-3 -2.01637 0c-0.790262-0.0107-2.01637 1.24737-2.01637 1.24737m0 0s-1.22615-1.24007-2.01637-1.24737c-0.660513-6e-3 -2.01637 0-2.01637 0h-4.03273v11.0635h4.03273s1.36986-3e-3 2.01637 0c0.790328 3e-3 2.01626 1.24737 2.01626 1.24737z" fill="none" stroke-linejoin="round" stroke-width=".4"/><path d="m49.5161 191.846h4.25223" fill="none" stroke-width=".8"/><path d="m49.5161 189.846h4.25223" fill="none" stroke-width=".8"/><path d="m49.5161 187.846h4.25223" fill="none" stroke-width=".8"/><path d="m42.548 189.876 0.980052 0.98005 0.980052-0.98005-0.980052-0.98004z" fill="none" stroke-width=".2"/><path d="m39.4746 185.108h-1.62586v12.7093c2.45743 5e-3 4.9149-7e-3 7.37232 0 0.948394 4e-3 1.47113 1.04325 2.41953 1.04325 0.948402 0 1.47137-1.04965 2.41975-1.04325 2.38183 1e-3 4.76368 0 7.14552 0v-12.7093h-1.39907" fill="none" stroke-linejoin="round" stroke-width=".4"/><path d="m47.6407 197.514s1.22605-1.25269 2.01637-1.24736c0.653472 4e-3 2.01637 0 2.01637 0h4.03273v-1.00349m-16.1309-0.0296v1.03307h4.03273s1.36986-3e-3 2.01637 0c0.790328 3e-3 2.01637 1.24736 2.01637 1.24736" fill="none" stroke-linejoin="round" stroke-width=".4"/><path d="m46.9369 184.762-0.02788 15.1268 0.655261-0.76679 0.72497 0.76679 0.08365-15.1268z" stroke-width=".214293" style="paint-order:normal"/></g></svg>
