<svg aria-hidden="true" viewBox="0 0 24 24" xmlns="http://www.w3.org/2000/svg"><g transform="matrix(.855478 0 0 .855478 2 6.62796)" fill="none" stroke="currentColor" stroke-linecap="round"><path d="m15.1407 7.05228-3.47902 3.47902-3.47902-3.47902 3.47902-3.47902z" stroke-width=".701362"/><path d="m1.43 7.00298c3.25483 3.39879 6.08342 4.93332 10.5364 5.15602 1.59574-0.02294 6.69924-0.46839 9.98971-5.15602" stroke-width=".701362"/><path d="m11.7 1.76555v-1.51555" stroke-width=".233787"/><path d="m22.9787 7.78994c-3.61952-5.15639-9.23336-5.64592-10.9887-5.67116-4.89829 0.244961-8.00974 1.93249-11.5901 5.67116" stroke-width=".701362"/><path d="m17.2725 3.3036 0.538996-1.41664" stroke-width=".233787"/><path d="m6.10627 3.3036-0.538996-1.41664" stroke-width=".233787"/><path d="m10.3915 7.05229 1.30463 1.30463 1.30463-1.30463-1.30463-1.30463z" stroke-width=".233787"/></g></svg>
