<svg viewBox="0 0 24 24" xmlns="http://www.w3.org/2000/svg" aria-hidden="true">
 <g id="g3" transform="matrix(-1.08135 0 0 1.08135 87.8109 -114.446)" fill="none" stroke="currentColor" stroke-linecap="round">
  <path id="path2" d="m66.6218 116.941 3.47902 3.47902 3.47902-3.47902-3.47902-3.47902z" stroke-width=".832292"/>
  <path id="path3" d="m71.5014 116.941-1.43509 1.43509-1.4351-1.43509 1.4351-1.43509z" stroke-width=".277431"/>
 </g>
 <path id="path11" d="m6.23413 8.14425-1.95444-1.95444 1.91502-1.91272 1.95413 1.95413 2.50098-1.03474m7.1162 10.6596 1.95415 1.95415-1.91453 1.91321-1.95412-1.95412-2.50118 1.03454m-2.70102-13.6073-1e-6 -2.76399 2.70662 0.00162v2.76356l2.50013 1.03679m-2.50554 12.5694v2.76358l-2.70662-9.29e-4v-2.76355l-2.50013-1.03707m7.71197-11.5315 1.95444-1.95444 1.91272 1.91502-1.95413 1.95413 1.03474 2.50098m-10.6596 7.1162-1.95415 1.95415-1.91321-1.91453 1.95412-1.95412-1.03454-2.50118m13.6073-2.70102h2.76399l-0.0016 2.70662h-2.76356l-1.03679 2.50013m-12.5694-2.50554h-2.76358l9.288e-4 -2.70662h2.76355l1.03707-2.50013" fill="none" stroke="currentColor" stroke-linecap="round"/>
</svg>
