<svg viewBox="0 0 24 24" xmlns="http://www.w3.org/2000/svg" aria-hidden="true">
 <g id="layer1" transform="translate(-81.3856 -124.753)">
  <g id="g6" transform="matrix(.653578 0 0 .653578 32.9531 45.2171)" stroke="currentColor">
   <path id="path2" d="m97.703 132.558-4.20961 4.20962-4.20961-4.20962 4.20961-4.20961z" fill="none" stroke-linecap="round" stroke-width=".918023"/>
   <path id="path3" d="m91.9565 132.558 1.5786 1.5786 1.5786-1.5786-1.5786-1.5786z" fill="none" stroke-linecap="round" stroke-width=".306008"/>
   <path id="rect2" d="m103.192 154.112s-12.0304 0.0139-19.378-9e-3c-0.570605-2e-3 -2.07475-0.36113-2.06538-2.28813 0.04341-8.92484-0.04459-16.4054 0-24.868 0.0062-1.17431 1.07873-1.84518 3.34867-1.83877 5.8553-0.0127 18.0951 0 18.0951 0l-4e-4 24.9176s-0.52917 1.33959-0.52917 2.0431 0.52917 2.04311 0.52917 2.04311zm0-4.08621-18.0947-2.4e-4v-24.9174m-3.35326 26.8172c0.0062-1.17431 1.18401-1.8637 3.67759-1.90202" fill="none" stroke-linejoin="round" stroke-width=".459012"/>
   <path id="path6" d="m93.1395 145.264 0.389267 0.38926 0.389268-0.38926-0.389268-0.38927zm-0.657667-4.48136 1.05318 1.05318 1.05318-1.05318-1.05318-1.05318zm-5.08667 9.24331h3.57188v6.24353l-1.78594-1.05833-1.78594 1.05833z" fill="currentColor" stroke-linecap="round" stroke-width=".0986357"/>
  </g>
 </g>
</svg>
