<svg viewBox="0 0 24 24" xmlns="http://www.w3.org/2000/svg" aria-hidden="true">
 <g id="layer1">
  <g id="g17" transform="matrix(.963738 0 0 .963738 .84209 1.12088)">
   <g id="g3" transform="matrix(-1.56621 0 0 1.56621 117.513 -171.735)" stroke-width=".497626">
    <path id="path2" d="m67.9264 115.636-0.434877 0.43488m0.869755 2.60926 1.73951 1.73951 3.47902-3.47902-3.47902-3.47902-1.52207 1.52207" fill="none" stroke="currentColor" stroke-linecap="round" stroke-width=".497626"/>
   </g>
   <path id="path5" d="m9.7636 11.4196-2.04332 2.04333-2.04333-2.04333 2.04333-2.04332z" fill="none" stroke="currentColor" stroke-linecap="round" stroke-width=".259796"/>
   <path id="path1" d="m12.8176 14.0397-0.68815 0.68815-0.68815-0.68815 0.68815-0.68814z" fill="currentColor" stroke="currentColor" stroke-linecap="round" stroke-width=".0874934"/>
   <path id="path3" d="m8.48652 11.4196-0.766244 0.766252-0.766252-0.766252 0.766252-0.766243z" fill="currentColor" stroke="currentColor" stroke-linecap="round" stroke-width=".0974237"/>
   <path id="path4" d="m15.6802 11.3722-0.68815 0.68815-0.68815-0.68815 0.68815-0.68814z" fill="currentColor" stroke="currentColor" stroke-linecap="round" stroke-width=".0874934"/>
   <path id="path6" d="m18.7054 8.57471-0.68815 0.68815-0.68815-0.68815 0.68815-0.68814z" fill="currentColor" stroke="currentColor" stroke-linecap="round" stroke-width=".0874934"/>
   <path id="path7" d="m18.9006 14.2348-0.68815 0.68815-0.68815-0.68815 0.68815-0.68814z" fill="currentColor" stroke="currentColor" stroke-linecap="round" stroke-width=".0874934"/>
   <path id="path8" d="m15.8103 16.7396-0.68815 0.68815-0.68815-0.68815 0.68815-0.68814z" fill="currentColor" stroke="currentColor" stroke-linecap="round" stroke-width=".0874934"/>
   <path id="path9" d="m13.4913 7.56629-0.516113 0.516112-0.516112-0.516112 0.516112-0.516105z" fill="currentColor" stroke="currentColor" stroke-linecap="round" stroke-width=".06562"/>
   <path id="path10" d="m15.5081 4.89887-0.516113 0.516112-0.516112-0.516112 0.516112-0.516105z" fill="currentColor" stroke="currentColor" stroke-linecap="round" stroke-width=".06562"/>
   <path id="path11" d="m19.2176 5.64705-0.387085 0.387084-0.387084-0.387084 0.387084-0.387079z" fill="currentColor" stroke="currentColor" stroke-linecap="round" stroke-width=".049215"/>
   <path id="path12" d="m22.438 7.50124-0.387085 0.387084-0.387084-0.387084 0.387084-0.387079z" fill="currentColor" stroke="currentColor" stroke-linecap="round" stroke-width=".049215"/>
   <path id="path13" d="m20.8441 11.4048-0.387085 0.387084-0.387084-0.387084 0.387084-0.387079z" fill="currentColor" stroke="currentColor" stroke-linecap="round" stroke-width=".049215"/>
   <path id="path14" d="m22.4388 13.1939-0.290314 0.290313-0.290313-0.290313 0.290313-0.29031z" fill="currentColor" stroke="currentColor" stroke-linecap="round" stroke-width=".0369112"/>
   <path id="path15" d="m15.3799 14.2999-0.290314 0.290313-0.290313-0.290313 0.290313-0.29031z" fill="currentColor" stroke="currentColor" stroke-linecap="round" stroke-width=".0369112"/>
   <path id="path16" d="m12.0619 16.8047-0.290314 0.290313-0.290313-0.290313 0.290313-0.29031z" fill="currentColor" stroke="currentColor" stroke-linecap="round" stroke-width=".0369112"/>
   <path id="path17" d="m11.7041 5.8097-0.290314 0.290313-0.290313-0.290313 0.290313-0.29031z" fill="currentColor" stroke="currentColor" stroke-linecap="round" stroke-width=".0369112"/>
  </g>
 </g>
</svg>
